<?xml version="1.0" encoding="utf-8"?>
<!-- Generator: Adobe Illustrator 15.1.0, SVG Export Plug-In . SVG Version: 6.00 Build 0)  -->
<!DOCTYPE svg PUBLIC "-//W3C//DTD SVG 1.1//EN" "http://www.w3.org/Graphics/SVG/1.1/DTD/svg11.dtd">
<svg version="1.1" id="b90746aa-ab89-4048-b48f-88833dcede4a"
	 xmlns="http://www.w3.org/2000/svg" xmlns:xlink="http://www.w3.org/1999/xlink" x="0px" y="0px" width="888.244px"
	 height="478.033px" viewBox="0 0 888.244 478.033" enable-background="new 0 0 888.244 478.033" xml:space="preserve">
<title>quite_town</title>
<path fill="#3F3D56" d="M192,477.001h-2c0-51.915-42.085-94-94-94c-51.914,0-94,42.085-94,94H0c0-53.021,42.981-96,96-96
	S192,423.98,192,477.001z"/>
<path fill="#3F3D56" d="M888.001,477.001h-2c0-51.915-42.086-94-94-94c-51.915,0-94,42.085-94,94h-2c0-53.021,42.98-96,96-96
	C845.019,381.001,888.001,423.98,888.001,477.001z"/>
<path fill="#3F3D56" d="M653.001,248h-2c0-94.841-77.159-172-172-172c-94.842,0-172,77.159-172,172h-2c0-95.943,78.056-174,174-174
	C574.944,74,653.001,152.056,653.001,248z"/>
<circle fill="#FFAE0B" cx="145.5" cy="39.5" r="39.5"/>
<polygon fill="#3F3D56" points="153.891,311.385 221.752,230.567 355.172,230.567 436.705,309.983 435.058,311.042 435.646,311.042 
	435.646,476.227 153.984,476.227 153.984,311.042 "/>
<rect x="194.719" y="223" fill="#3F3D56" width="15.383" height="53.249"/>
<polygon fill="#E08D7E" points="220.694,229.508 304.345,327.581 304.345,476.227 153.984,476.227 153.984,308.925 "/>
<rect x="254.306" y="347.045" fill="#3F3D56" width="30.707" height="31.397"/>
<rect x="254.306" y="389.767" fill="#3F3D56" width="30.707" height="31.397"/>
<rect x="254.306" y="347.045" fill="#FFFFFF" width="30.707" height="31.397"/>
<rect x="254.306" y="389.767" fill="#FFFFFF" width="30.707" height="31.397"/>
<rect x="211.838" y="347.045" fill="#3F3D56" width="30.708" height="31.397"/>
<rect x="211.838" y="389.767" fill="#3F3D56" width="30.708" height="31.397"/>
<rect x="211.838" y="347.045" fill="#FFFFFF" width="30.708" height="31.397"/>
<rect x="211.838" y="389.767" fill="#FFFFFF" width="30.708" height="31.397"/>
<rect x="169.369" y="347.045" fill="#3F3D56" width="30.708" height="31.397"/>
<rect x="169.369" y="389.767" fill="#3F3D56" width="30.708" height="31.397"/>
<rect x="169.369" y="347.045" fill="#FFFFFF" width="30.708" height="31.397"/>
<rect x="169.369" y="389.767" fill="#FFFFFF" width="30.708" height="31.397"/>
<rect x="485.001" y="40" fill="#E08D7E" width="14" height="35"/>
<rect x="379.001" y="72" fill="#E08D7E" width="119" height="405.001"/>
<rect x="498.001" y="72" fill="#3F3D56" width="48" height="405.001"/>
<rect x="400.501" y="107" fill="#FFFFFF" width="18" height="18"/>
<rect x="429.501" y="107" fill="#FFFFFF" width="18" height="18"/>
<rect x="458.501" y="107" fill="#FFFFFF" width="18" height="18"/>
<rect x="401.001" y="148" fill="#FFFFFF" width="18" height="18"/>
<rect x="430.001" y="148" fill="#FFFFFF" width="18" height="18"/>
<rect x="459.001" y="148" fill="#FFFFFF" width="18" height="18"/>
<rect x="401.501" y="189" fill="#FFFFFF" width="18" height="18"/>
<rect x="430.501" y="189" fill="#FFFFFF" width="18" height="18"/>
<rect x="459.501" y="189" fill="#FFFFFF" width="18" height="18"/>
<rect x="402.001" y="230" fill="#FFFFFF" width="18" height="18"/>
<rect x="431.001" y="230" fill="#FFFFFF" width="18" height="18"/>
<rect x="460.001" y="230" fill="#FFFFFF" width="18" height="18"/>
<rect x="402.501" y="271" fill="#FFFFFF" width="18" height="18"/>
<rect x="431.501" y="271" fill="#FFFFFF" width="18" height="18"/>
<rect x="460.501" y="271" fill="#FFFFFF" width="18" height="18"/>
<rect x="403.001" y="312.001" fill="#FFFFFF" width="18" height="18"/>
<rect x="432.001" y="312.001" fill="#FFFFFF" width="18" height="18"/>
<rect x="461.001" y="312.001" fill="#FFFFFF" width="18" height="18"/>
<rect x="403.501" y="353.001" fill="#FFFFFF" width="18" height="18"/>
<rect x="432.501" y="353.001" fill="#FFFFFF" width="18" height="18"/>
<rect x="461.501" y="353.001" fill="#FFFFFF" width="18" height="18"/>
<rect x="404.001" y="394.001" fill="#FFFFFF" width="18" height="18"/>
<rect x="433.001" y="394.001" fill="#FFFFFF" width="18" height="18"/>
<rect x="433.001" y="442.001" fill="#FFFFFF" width="18" height="34"/>
<rect x="462.001" y="394.001" fill="#FFFFFF" width="18" height="18"/>
<rect x="498.001" y="40" fill="#3F3D56" width="8" height="34"/>
<rect x="635.001" y="218" fill="#E08D7E" width="14" height="20.744"/>
<rect x="529.001" y="236.966" fill="#E08D7E" width="119" height="240.035"/>
<rect x="648.001" y="236.966" fill="#3F3D56" width="48" height="240.035"/>
<rect x="552.501" y="271" fill="#FFFFFF" width="18" height="18"/>
<rect x="581.501" y="271" fill="#FFFFFF" width="18" height="18"/>
<rect x="610.501" y="271" fill="#FFFFFF" width="18" height="18"/>
<rect x="553.001" y="312.001" fill="#FFFFFF" width="18" height="18"/>
<rect x="582.001" y="312.001" fill="#FFFFFF" width="18" height="18"/>
<rect x="611.001" y="312.001" fill="#FFFFFF" width="18" height="18"/>
<rect x="553.501" y="353.001" fill="#FFFFFF" width="18" height="18"/>
<rect x="582.501" y="353.001" fill="#FFFFFF" width="18" height="18"/>
<rect x="611.501" y="353.001" fill="#FFFFFF" width="18" height="18"/>
<rect x="554.001" y="394.001" fill="#FFFFFF" width="18" height="18"/>
<rect x="583.001" y="394.001" fill="#FFFFFF" width="18" height="18"/>
<rect x="583.001" y="442.001" fill="#FFFFFF" width="18" height="34"/>
<rect x="612.001" y="394.001" fill="#FFFFFF" width="18" height="18"/>
<rect x="648.001" y="218" fill="#3F3D56" width="8" height="20.151"/>
<rect x="0.244" y="475.792" fill="#3F3D56" width="888" height="2.241"/>
<circle fill="#67C679" cx="732.66" cy="404.041" r="26.041"/>
<path opacity="0.2" enable-background="new    " d="M752.031,386.647c5.653,13.225-0.484,28.529-13.71,34.184
	c-10.289,4.398-22.238,1.732-29.683-6.623c5.653,13.227,20.957,19.364,34.184,13.712c13.226-5.653,19.364-20.957,13.711-34.184
	C755.426,391.146,753.905,388.752,752.031,386.647L752.031,386.647z"/>
<polygon fill="#3F3D56" points="732.731,404.041 732.803,404.041 734.091,477.87 731.372,477.87 "/>
<rect x="734.4" y="442.371" transform="matrix(0.4662 0.8847 -0.8847 0.4662 785.8611 -412.8431)" fill="#3F3D56" width="1.288" height="4.865"/>
<circle fill="#67C679" cx="809.219" cy="365.599" r="39.599"/>
<path opacity="0.2" enable-background="new    " d="M838.676,339.15c8.597,20.11-0.735,43.384-20.848,51.981
	c-15.646,6.688-33.817,2.635-45.138-10.07c8.598,20.111,31.869,29.445,51.98,20.85c20.112-8.597,29.447-31.869,20.852-51.98
	C843.838,345.989,841.525,342.349,838.676,339.15z"/>
<polygon fill="#3F3D56" points="809.327,365.599 809.437,365.599 811.394,477.87 807.26,477.87 "/>
<rect x="811.817" y="423.864" transform="matrix(0.4655 0.8851 -0.8851 0.4655 812.8965 -490.8316)" fill="#3F3D56" width="1.96" height="7.398"/>
<circle fill="#67C679" cx="26.66" cy="403.041" r="26.041"/>
<path opacity="0.2" enable-background="new    " d="M46.03,385.647c5.654,13.225-0.483,28.529-13.709,34.184
	c-10.289,4.398-22.238,1.732-29.682-6.623c5.652,13.227,20.957,19.364,34.183,13.712c13.226-5.653,19.364-20.957,13.711-34.184
	C49.426,390.146,47.905,387.752,46.03,385.647L46.03,385.647z"/>
<polygon fill="#3F3D56" points="26.731,403.041 26.803,403.041 28.09,476.87 25.372,476.87 "/>
<rect x="28.384" y="441.396" transform="matrix(0.4656 0.885 -0.885 0.4656 408.2926 211.4827)" fill="#3F3D56" width="1.288" height="4.864"/>
<path fill="#3F3D56" d="M606.414,37.336l9.206-7.362c-7.152-0.789-10.091,3.11-11.293,6.197c-5.587-2.319-11.669,0.721-11.669,0.721
	l18.419,6.687C610.147,41.097,608.53,38.931,606.414,37.336z"/>
<path fill="#3F3D56" d="M144.414,74.336l9.205-7.362c-7.151-0.789-10.09,3.11-11.292,6.197c-5.587-2.319-11.669,0.721-11.669,0.721
	l18.418,6.687C148.147,78.097,146.53,75.931,144.414,74.336z"/>
<path fill="#3F3D56" d="M746.414,112.336l9.206-7.362c-7.152-0.789-10.091,3.11-11.293,6.197
	c-5.587-2.319-11.669,0.721-11.669,0.721l18.419,6.687C750.147,116.097,748.53,113.931,746.414,112.336z"/>
<path fill="#3F3D56" d="M220.414,54.336l9.205-7.362c-7.151-0.789-10.09,3.11-11.292,6.197c-5.587-2.319-11.669,0.721-11.669,0.721
	l18.418,6.687C224.147,58.097,222.53,55.931,220.414,54.336z"/>
<path fill="#3F3D56" d="M237.414,134.336l9.205-7.362c-7.151-0.789-10.09,3.11-11.292,6.197c-5.587-2.319-11.669,0.721-11.669,0.721
	l18.418,6.687C241.147,138.097,239.53,135.931,237.414,134.336z"/>
<path fill="#3F3D56" d="M595.414,176.336l9.206-7.362c-7.152-0.789-10.091,3.11-11.293,6.197
	c-5.587-2.319-11.669,0.721-11.669,0.721l18.419,6.687C599.147,180.097,597.53,177.931,595.414,176.336z"/>
<polygon fill="#3F3D56" points="106,456.001 44,456.001 44,458.001 53.669,458.001 53.669,477.001 55.669,477.001 55.669,458.001 
	93.331,458.001 93.331,477.001 95.331,477.001 95.331,458.001 106,458.001 "/>
<path fill="#3F3D56" d="M169,464.001c-2.447,0-4.851,0.645-6.969,1.869c-6.138-5.55-15.611-5.073-21.161,1.063
	c-2.495,2.76-3.874,6.348-3.87,10.066h45.95C182.43,469.679,176.341,464.004,169,464.001z"/>
<path fill="#3F3D56" d="M406.001,464.001c-2.447,0-4.852,0.645-6.97,1.869c-6.138-5.55-15.611-5.073-21.161,1.063
	c-2.495,2.76-3.874,6.348-3.869,10.066h45.949C419.43,469.679,413.341,464.004,406.001,464.001z"/>
<path fill="#3F3D56" d="M561.001,464.001c-2.447,0-4.852,0.645-6.97,1.869c-6.138-5.55-15.611-5.073-21.161,1.063
	c-2.495,2.76-3.874,6.348-3.869,10.066h45.949C574.43,469.679,568.341,464.004,561.001,464.001z"/>
<path fill="#3F3D56" d="M765.001,464.001c-2.447,0-4.852,0.645-6.97,1.869c-6.138-5.55-15.611-5.073-21.161,1.063
	c-2.495,2.76-3.874,6.348-3.869,10.066h45.949C778.43,469.679,772.341,464.004,765.001,464.001z"/>
<path fill="#3F3D56" d="M863.001,464.001c-2.447,0-4.852,0.645-6.97,1.869c-6.138-5.55-15.611-5.073-21.161,1.063
	c-2.495,2.76-3.874,6.348-3.869,10.066h45.949C876.43,469.679,870.341,464.004,863.001,464.001z"/>
<polygon fill="#3F3D56" points="129,407.001 113,407.001 113,423.001 120.417,423.001 120.417,476.912 122.417,476.912 
	122.417,423.001 129,423.001 "/>
<rect x="44.122" y="450.017" fill="#3F3D56" width="62" height="2"/>
<rect x="44.122" y="445.017" fill="#3F3D56" width="62" height="2"/>
<rect x="44.122" y="440.017" fill="#3F3D56" width="62" height="2"/>
</svg>
