<?xml version="1.0" encoding="utf-8"?>
<!-- Generator: Adobe Illustrator 15.1.0, SVG Export Plug-In . SVG Version: 6.00 Build 0)  -->
<!DOCTYPE svg PUBLIC "-//W3C//DTD SVG 1.1//EN" "http://www.w3.org/Graphics/SVG/1.1/DTD/svg11.dtd">
<svg version="1.1" id="Layer_1" xmlns="http://www.w3.org/2000/svg" xmlns:xlink="http://www.w3.org/1999/xlink" x="0px" y="0px"
	 width="230px" height="120px" viewBox="0 0 230 120" enable-background="new 0 0 230 120" xml:space="preserve">
<g>
	<g>
		<g>
			<path fill="#E55933" d="M87.552,67.773c-1.441,0-2.71-0.341-3.807-1.022c-1.098-0.682-1.967-1.567-2.606-2.657V74.69h-3.771
				V49.613h3.326v3.203c0.687-1.067,1.572-1.919,2.658-2.556c1.085-0.636,2.314-0.954,3.685-0.954c1.234,0,2.367,0.25,3.395,0.75
				c1.029,0.5,1.921,1.17,2.676,2.01c0.753,0.841,1.342,1.818,1.766,2.93c0.423,1.113,0.634,2.283,0.634,3.51
				c0,1.294-0.194,2.504-0.583,3.628s-0.938,2.102-1.646,2.93c-0.709,0.83-1.549,1.488-2.521,1.977S88.717,67.773,87.552,67.773z
				 M86.317,64.571c0.8,0,1.525-0.171,2.177-0.512s1.212-0.795,1.681-1.362c0.468-0.568,0.828-1.215,1.08-1.942
				c0.251-0.727,0.377-1.476,0.377-2.249c0-0.818-0.144-1.59-0.43-2.317s-0.674-1.363-1.165-1.908
				c-0.491-0.545-1.08-0.977-1.767-1.295c-0.685-0.317-1.429-0.477-2.228-0.477c-0.48,0-0.983,0.091-1.51,0.272
				c-0.525,0.182-1.017,0.432-1.474,0.75c-0.457,0.318-0.857,0.688-1.2,1.107c-0.343,0.42-0.583,0.88-0.721,1.38v4.668
				c0.229,0.544,0.526,1.056,0.892,1.533c0.365,0.478,0.771,0.886,1.218,1.227s0.932,0.613,1.457,0.818
				C85.231,64.469,85.768,64.571,86.317,64.571z"/>
			<path fill="#E55933" d="M106.958,67.773c-1.417,0-2.691-0.25-3.823-0.75c-1.132-0.499-2.097-1.169-2.896-2.01
				c-0.802-0.84-1.419-1.823-1.852-2.947c-0.435-1.124-0.652-2.299-0.652-3.526c0-1.227,0.218-2.402,0.652-3.527
				c0.433-1.124,1.057-2.106,1.868-2.947c0.811-0.84,1.782-1.51,2.915-2.01c1.131-0.499,2.394-0.75,3.788-0.75
				s2.657,0.25,3.789,0.75c1.132,0.5,2.103,1.17,2.914,2.01c0.812,0.841,1.435,1.823,1.869,2.947c0.434,1.125,0.651,2.3,0.651,3.527
				c0,1.227-0.218,2.402-0.651,3.526c-0.435,1.124-1.058,2.107-1.869,2.947c-0.812,0.841-1.782,1.511-2.914,2.01
				C109.615,67.523,108.353,67.773,106.958,67.773z M101.609,58.574c0,0.864,0.137,1.659,0.411,2.385
				c0.274,0.727,0.651,1.357,1.131,1.891c0.481,0.533,1.046,0.953,1.697,1.26c0.652,0.308,1.354,0.461,2.109,0.461
				s1.457-0.153,2.109-0.461c0.651-0.307,1.217-0.732,1.697-1.277c0.479-0.545,0.856-1.181,1.131-1.908
				c0.274-0.727,0.412-1.521,0.412-2.385c0-0.84-0.138-1.63-0.412-2.368c-0.274-0.738-0.651-1.38-1.131-1.925
				c-0.48-0.545-1.046-0.971-1.697-1.277c-0.652-0.307-1.354-0.46-2.109-0.46c-0.732,0-1.423,0.159-2.074,0.477
				c-0.652,0.318-1.217,0.75-1.697,1.295c-0.479,0.545-0.863,1.187-1.149,1.925S101.609,57.734,101.609,58.574z"/>
			<path fill="#E55933" d="M124.308,67.773c-0.868,0-1.675-0.143-2.417-0.426c-0.743-0.284-1.383-0.676-1.921-1.176
				c-0.536-0.499-0.96-1.09-1.269-1.771s-0.463-1.419-0.463-2.215c0-0.84,0.183-1.601,0.549-2.282
				c0.365-0.682,0.886-1.272,1.561-1.772c0.674-0.5,1.474-0.886,2.399-1.158c0.926-0.273,1.949-0.409,3.069-0.409
				c0.845,0,1.681,0.074,2.503,0.222c0.822,0.148,1.565,0.347,2.229,0.596v-1.227c0-1.317-0.377-2.345-1.132-3.083
				c-0.754-0.738-1.84-1.107-3.257-1.107c-0.96,0-1.902,0.176-2.828,0.528s-1.881,0.857-2.864,1.516l-1.165-2.385
				c2.309-1.544,4.708-2.317,7.2-2.317c2.469,0,4.39,0.625,5.76,1.874c1.372,1.25,2.059,3.044,2.059,5.383v6.44
				c0,0.795,0.331,1.204,0.994,1.227v3.202c-0.366,0.068-0.681,0.113-0.943,0.137c-0.264,0.021-0.52,0.033-0.771,0.033
				c-0.732,0-1.297-0.181-1.697-0.545c-0.399-0.363-0.646-0.829-0.737-1.396l-0.103-1.124c-0.8,1.045-1.789,1.845-2.966,2.401
				C126.919,67.495,125.656,67.773,124.308,67.773z M125.337,65.014c0.914,0,1.776-0.164,2.589-0.494
				c0.811-0.329,1.445-0.789,1.902-1.38c0.48-0.409,0.72-0.84,0.72-1.295v-2.351c-0.641-0.25-1.319-0.443-2.04-0.579
				c-0.72-0.136-1.423-0.205-2.108-0.205c-1.35,0-2.451,0.29-3.31,0.869c-0.856,0.579-1.285,1.346-1.285,2.299
				c0,0.886,0.331,1.63,0.994,2.231C123.462,64.713,124.308,65.014,125.337,65.014z"/>
			<path fill="#E55933" d="M139.806,67.433V54.009h-2.366v-3.476h2.366v-1.09c0-2.226,0.537-3.986,1.612-5.281
				c1.074-1.295,2.536-1.942,4.388-1.942c1.463,0,2.938,0.353,4.424,1.056l-0.926,3.441c-0.344-0.182-0.749-0.335-1.217-0.46
				c-0.469-0.125-0.898-0.188-1.287-0.188c-1.6,0-2.399,1.068-2.399,3.203v1.26h4.389v3.476H144.4v13.424H139.806z"/>
			<path fill="#E55933" d="M158.803,67.773c-1.463,0-2.777-0.25-3.943-0.75c-1.166-0.499-2.154-1.175-2.967-2.026
				c-0.812-0.853-1.435-1.834-1.868-2.947c-0.435-1.113-0.651-2.283-0.651-3.509c0-1.249,0.217-2.431,0.651-3.544
				c0.434-1.112,1.057-2.095,1.868-2.947c0.813-0.852,1.801-1.528,2.967-2.027s2.48-0.75,3.943-0.75c1.462,0,2.771,0.25,3.925,0.75
				c1.155,0.5,2.138,1.175,2.949,2.027c0.812,0.852,1.435,1.834,1.868,2.947c0.435,1.113,0.652,2.295,0.652,3.544
				c0,1.227-0.218,2.396-0.652,3.509c-0.434,1.113-1.051,2.095-1.852,2.947c-0.8,0.852-1.782,1.527-2.948,2.026
				C161.58,67.523,160.265,67.773,158.803,67.773z M154.105,58.541c0,0.795,0.119,1.516,0.359,2.164
				c0.24,0.646,0.571,1.209,0.994,1.687c0.423,0.477,0.92,0.846,1.492,1.106c0.571,0.262,1.188,0.393,1.852,0.393
				c0.662,0,1.279-0.131,1.852-0.393c0.571-0.261,1.068-0.63,1.491-1.106c0.422-0.478,0.754-1.045,0.994-1.704
				s0.359-1.385,0.359-2.181c0-0.772-0.119-1.488-0.359-2.146s-0.572-1.227-0.994-1.704c-0.423-0.477-0.92-0.846-1.491-1.107
				c-0.572-0.261-1.189-0.392-1.852-0.392c-0.663,0-1.28,0.137-1.852,0.409c-0.572,0.272-1.069,0.647-1.492,1.124
				c-0.423,0.477-0.754,1.045-0.994,1.704C154.225,57.053,154.105,57.769,154.105,58.541z"/>
			<path fill="#E55933" d="M181.98,53.532c-1.395,0.023-2.641,0.29-3.737,0.801c-1.099,0.511-1.887,1.278-2.366,2.3v10.8h-4.595
				V49.58h4.218v3.816c0.319-0.613,0.696-1.164,1.131-1.652s0.903-0.915,1.406-1.278c0.502-0.363,1.012-0.642,1.525-0.835
				c0.514-0.192,1.012-0.29,1.492-0.29c0.251,0,0.439,0,0.565,0c0.125,0,0.245,0.012,0.36,0.034V53.532z"/>
			<path fill="#E55933" d="M195.319,66.513c-0.617,0.272-1.372,0.545-2.264,0.817s-1.829,0.409-2.812,0.409
				c-0.64,0-1.24-0.08-1.801-0.238c-0.56-0.159-1.051-0.414-1.474-0.767c-0.424-0.353-0.761-0.807-1.012-1.363
				c-0.251-0.556-0.377-1.231-0.377-2.027V53.089h-2.365V49.58h2.365v-5.792h4.595v5.792h3.771v3.509h-3.771v8.722
				c0,0.637,0.166,1.085,0.497,1.347c0.331,0.261,0.737,0.392,1.218,0.392c0.479,0,0.948-0.079,1.405-0.238s0.823-0.295,1.098-0.409
				L195.319,66.513z"/>
			<path fill="#E55933" d="M205.604,67.773c-1.439,0-2.742-0.244-3.908-0.732c-1.165-0.488-2.16-1.152-2.982-1.993
				c-0.824-0.84-1.458-1.817-1.903-2.931c-0.445-1.112-0.669-2.282-0.669-3.509c0-1.272,0.218-2.47,0.651-3.595
				c0.434-1.124,1.063-2.112,1.887-2.964c0.822-0.852,1.821-1.528,3-2.027c1.177-0.5,2.497-0.75,3.96-0.75s2.771,0.25,3.926,0.75
				c1.154,0.5,2.138,1.17,2.949,2.01c0.811,0.84,1.428,1.817,1.852,2.93c0.423,1.113,0.634,2.271,0.634,3.475
				c0,0.295-0.006,0.579-0.017,0.852c-0.012,0.272-0.04,0.5-0.086,0.681h-13.887c0.068,0.705,0.239,1.329,0.515,1.874
				c0.274,0.546,0.628,1.012,1.063,1.397c0.435,0.387,0.926,0.682,1.474,0.886c0.55,0.204,1.121,0.307,1.715,0.307
				c0.914,0,1.777-0.222,2.589-0.664c0.811-0.443,1.366-1.028,1.663-1.755l3.943,1.09c-0.663,1.363-1.721,2.482-3.172,3.356
				C209.348,67.336,207.616,67.773,205.604,67.773z M210.268,57.007c-0.113-1.34-0.611-2.413-1.49-3.22
				c-0.881-0.806-1.949-1.209-3.206-1.209c-0.617,0-1.195,0.108-1.731,0.324c-0.538,0.216-1.013,0.517-1.423,0.903
				c-0.412,0.387-0.749,0.852-1.013,1.397c-0.263,0.545-0.417,1.147-0.463,1.806H210.268z"/>
		</g>
		<path fill-rule="evenodd" clip-rule="evenodd" fill="#E55933" d="M36.146,27.028c-2.451-1.328-5.056-2.502-7.732-3.606
			c1.645-2.799,4.1-7.751,6.944-9.565c2.647-1.689,6.568,2.646,6.311,5.018C41.363,21.68,37.646,25.106,36.146,27.028z"/>
		<path fill-rule="evenodd" clip-rule="evenodd" fill="#E55933" d="M43.246,35.338c-0.837-1.409-0.096-3.103-0.474-4.391
			c-0.601-2.058-3.698-1.994-4.892-3.45c1.401-3.102,3.502-5.511,5.522-7.997c3.381-0.712,6.222,2.509,6.628,4.547
			C51.095,29.376,44.515,31.843,43.246,35.338z"/>
		<path fill-rule="evenodd" clip-rule="evenodd" fill="#E55933" d="M26.203,24.206c5.7,1.864,10.626,4.495,15.938,6.742
			c2.15,8.506-10.631,8.042-12.781,3.136c-0.12,0.905,0.361,2.565,0.631,3.606c-0.729,0.581-1.729,0.894-2.841,1.098
			c3.9,2.902,7.936,5.072,11.047,8.781c3.414,4.072,4.645,9.621,7.732,14.269c-1.604-8.443-5.836-14.272-11.047-19.13
			c7.656,0.024,13.157,3.546,17.042,7.84c2.57-1.732,5.245-3.359,7.89-5.018c0.053,6.726-1.744,12.681-4.417,17.562
			c-0.934,1.703-2.69,3.377-2.999,5.018c-0.374,1.986,0.21,5.499,0.316,7.997c0.265,6.244,0.076,12.959,0.314,19.443
			c-4.368,1.623-7.135,4.578-9.783,7.996c-0.802,1.035-1.489,2.494-2.84,2.979c-0.311-3.389,0.301-6.857,0.631-10.348
			c0.981-10.363,2.558-20.93,3.314-31.517c-1.276,1.219-0.895,3.256-1.105,4.861c-1.543,11.759-2.964,24.513-4.734,36.063
			c-3.858-5.521-8.868-9.9-16.253-11.918c2.376-10.34,4.862-20.57,7.259-30.888C24.515,55.258,19.084,48.162,15,39.729
			C18.513,34.332,22.168,29.081,26.203,24.206z"/>
		<path fill-rule="evenodd" clip-rule="evenodd" fill="#E55933" d="M46.718,44.747c-2.475-0.677-4.858-1.444-6.312-3.136
			c3.181-5.568,7.428-10.076,11.203-15.053c3.212-0.667,6.011,3.5,5.838,5.645c-0.068,0.863-1.627,2.551-2.366,3.45
			C52.579,38.692,49.177,42.366,46.718,44.747z"/>
		<path fill-rule="evenodd" clip-rule="evenodd" fill="#E55933" d="M52.084,49.45c-1.484-1.139-2.608-2.636-3.788-4.077
			c3.432-4.064,7.143-7.851,10.729-11.76c2.257,1.068,5.077,3.242,4.735,5.958c-0.273,2.154-3.654,4.125-5.366,5.488
			C56.083,46.9,54.029,48.471,52.084,49.45z"/>
	</g>
	<g opacity="0.22">
		<g>
			<linearGradient id="SVGID_1_" gradientUnits="userSpaceOnUse" x1="-17.0098" y1="10.9448" x2="216.3844" y2="121.6059">
				<stop  offset="0" style="stop-color:#FFFFFF"/>
				<stop  offset="0" style="stop-color:#E8E8E8"/>
				<stop  offset="1" style="stop-color:#5E5E5E"/>
			</linearGradient>
			<path fill="url(#SVGID_1_)" d="M87.552,67.773c-1.441,0-2.71-0.341-3.807-1.022c-1.098-0.682-1.967-1.567-2.606-2.657V74.69
				h-3.771V49.613h3.326v3.203c0.687-1.067,1.572-1.919,2.658-2.556c1.085-0.636,2.314-0.954,3.685-0.954
				c1.234,0,2.367,0.25,3.395,0.75c1.029,0.5,1.921,1.17,2.676,2.01c0.753,0.841,1.342,1.818,1.766,2.93
				c0.423,1.113,0.634,2.283,0.634,3.51c0,1.294-0.194,2.504-0.583,3.628s-0.938,2.102-1.646,2.93
				c-0.709,0.83-1.549,1.488-2.521,1.977S88.717,67.773,87.552,67.773z M86.317,64.571c0.8,0,1.525-0.171,2.177-0.512
				s1.212-0.795,1.681-1.362c0.468-0.568,0.828-1.215,1.08-1.942c0.251-0.727,0.377-1.476,0.377-2.249
				c0-0.818-0.144-1.59-0.43-2.317s-0.674-1.363-1.165-1.908c-0.491-0.545-1.08-0.977-1.767-1.295
				c-0.685-0.317-1.429-0.477-2.228-0.477c-0.48,0-0.983,0.091-1.51,0.272c-0.525,0.182-1.017,0.432-1.474,0.75
				c-0.457,0.318-0.857,0.688-1.2,1.107c-0.343,0.42-0.583,0.88-0.721,1.38v4.668c0.229,0.544,0.526,1.056,0.892,1.533
				c0.365,0.478,0.771,0.886,1.218,1.227s0.932,0.613,1.457,0.818C85.231,64.469,85.768,64.571,86.317,64.571z"/>
			<linearGradient id="SVGID_2_" gradientUnits="userSpaceOnUse" x1="-17.0098" y1="10.9448" x2="216.3844" y2="121.6059">
				<stop  offset="0" style="stop-color:#FFFFFF"/>
				<stop  offset="0" style="stop-color:#E8E8E8"/>
				<stop  offset="1" style="stop-color:#5E5E5E"/>
			</linearGradient>
			<path fill="url(#SVGID_2_)" d="M106.958,67.773c-1.417,0-2.691-0.25-3.823-0.75c-1.132-0.499-2.097-1.169-2.896-2.01
				c-0.802-0.84-1.419-1.823-1.852-2.947c-0.435-1.124-0.652-2.299-0.652-3.526c0-1.227,0.218-2.402,0.652-3.527
				c0.433-1.124,1.057-2.106,1.868-2.947c0.811-0.84,1.782-1.51,2.915-2.01c1.131-0.499,2.394-0.75,3.788-0.75
				s2.657,0.25,3.789,0.75c1.132,0.5,2.103,1.17,2.914,2.01c0.812,0.841,1.435,1.823,1.869,2.947c0.434,1.125,0.651,2.3,0.651,3.527
				c0,1.227-0.218,2.402-0.651,3.526c-0.435,1.124-1.058,2.107-1.869,2.947c-0.812,0.841-1.782,1.511-2.914,2.01
				C109.615,67.523,108.353,67.773,106.958,67.773z M101.609,58.574c0,0.864,0.137,1.659,0.411,2.385
				c0.274,0.727,0.651,1.357,1.131,1.891c0.481,0.533,1.046,0.953,1.697,1.26c0.652,0.308,1.354,0.461,2.109,0.461
				s1.457-0.153,2.109-0.461c0.651-0.307,1.217-0.732,1.697-1.277c0.479-0.545,0.856-1.181,1.131-1.908
				c0.274-0.727,0.412-1.521,0.412-2.385c0-0.84-0.138-1.63-0.412-2.368c-0.274-0.738-0.651-1.38-1.131-1.925
				c-0.48-0.545-1.046-0.971-1.697-1.277c-0.652-0.307-1.354-0.46-2.109-0.46c-0.732,0-1.423,0.159-2.074,0.477
				c-0.652,0.318-1.217,0.75-1.697,1.295c-0.479,0.545-0.863,1.187-1.149,1.925S101.609,57.734,101.609,58.574z"/>
			<linearGradient id="SVGID_3_" gradientUnits="userSpaceOnUse" x1="-17.0098" y1="10.9448" x2="216.3844" y2="121.6059">
				<stop  offset="0" style="stop-color:#FFFFFF"/>
				<stop  offset="0" style="stop-color:#E8E8E8"/>
				<stop  offset="1" style="stop-color:#5E5E5E"/>
			</linearGradient>
			<path fill="url(#SVGID_3_)" d="M124.308,67.773c-0.868,0-1.675-0.143-2.417-0.426c-0.743-0.284-1.383-0.676-1.921-1.176
				c-0.536-0.499-0.96-1.09-1.269-1.771s-0.463-1.419-0.463-2.215c0-0.84,0.183-1.601,0.549-2.282
				c0.365-0.682,0.886-1.272,1.561-1.772c0.674-0.5,1.474-0.886,2.399-1.158c0.926-0.273,1.949-0.409,3.069-0.409
				c0.845,0,1.681,0.074,2.503,0.222c0.822,0.148,1.565,0.347,2.229,0.596v-1.227c0-1.317-0.377-2.345-1.132-3.083
				c-0.754-0.738-1.84-1.107-3.257-1.107c-0.96,0-1.902,0.176-2.828,0.528s-1.881,0.857-2.864,1.516l-1.165-2.385
				c2.309-1.544,4.708-2.317,7.2-2.317c2.469,0,4.39,0.625,5.76,1.874c1.372,1.25,2.059,3.044,2.059,5.383v6.44
				c0,0.795,0.331,1.204,0.994,1.227v3.202c-0.366,0.068-0.681,0.113-0.943,0.137c-0.264,0.021-0.52,0.033-0.771,0.033
				c-0.732,0-1.297-0.181-1.697-0.545c-0.399-0.363-0.646-0.829-0.737-1.396l-0.103-1.124c-0.8,1.045-1.789,1.845-2.966,2.401
				C126.919,67.495,125.656,67.773,124.308,67.773z M125.337,65.014c0.914,0,1.776-0.164,2.589-0.494
				c0.811-0.329,1.445-0.789,1.902-1.38c0.48-0.409,0.72-0.84,0.72-1.295v-2.351c-0.641-0.25-1.319-0.443-2.04-0.579
				c-0.72-0.136-1.423-0.205-2.108-0.205c-1.35,0-2.451,0.29-3.31,0.869c-0.856,0.579-1.285,1.346-1.285,2.299
				c0,0.886,0.331,1.63,0.994,2.231C123.462,64.713,124.308,65.014,125.337,65.014z"/>
			<linearGradient id="SVGID_4_" gradientUnits="userSpaceOnUse" x1="-17.0098" y1="10.9448" x2="216.3844" y2="121.6059">
				<stop  offset="0" style="stop-color:#FFFFFF"/>
				<stop  offset="0" style="stop-color:#E8E8E8"/>
				<stop  offset="1" style="stop-color:#5E5E5E"/>
			</linearGradient>
			<path fill="url(#SVGID_4_)" d="M139.806,67.433V54.009h-2.366v-3.476h2.366v-1.09c0-2.226,0.537-3.986,1.612-5.281
				c1.074-1.295,2.536-1.942,4.388-1.942c1.463,0,2.938,0.353,4.424,1.056l-0.926,3.441c-0.344-0.182-0.749-0.335-1.217-0.46
				c-0.469-0.125-0.898-0.188-1.287-0.188c-1.6,0-2.399,1.068-2.399,3.203v1.26h4.389v3.476H144.4v13.424H139.806z"/>
			<linearGradient id="SVGID_5_" gradientUnits="userSpaceOnUse" x1="-17.0098" y1="10.9448" x2="216.3844" y2="121.6059">
				<stop  offset="0" style="stop-color:#FFFFFF"/>
				<stop  offset="0" style="stop-color:#E8E8E8"/>
				<stop  offset="1" style="stop-color:#5E5E5E"/>
			</linearGradient>
			<path fill="url(#SVGID_5_)" d="M158.803,67.773c-1.463,0-2.777-0.25-3.943-0.75c-1.166-0.499-2.154-1.175-2.967-2.026
				c-0.812-0.853-1.435-1.834-1.868-2.947c-0.435-1.113-0.651-2.283-0.651-3.509c0-1.249,0.217-2.431,0.651-3.544
				c0.434-1.112,1.057-2.095,1.868-2.947c0.813-0.852,1.801-1.528,2.967-2.027s2.48-0.75,3.943-0.75c1.462,0,2.771,0.25,3.925,0.75
				c1.155,0.5,2.138,1.175,2.949,2.027c0.812,0.852,1.435,1.834,1.868,2.947c0.435,1.113,0.652,2.295,0.652,3.544
				c0,1.227-0.218,2.396-0.652,3.509c-0.434,1.113-1.051,2.095-1.852,2.947c-0.8,0.852-1.782,1.527-2.948,2.026
				C161.58,67.523,160.265,67.773,158.803,67.773z M154.105,58.541c0,0.795,0.119,1.516,0.359,2.164
				c0.24,0.646,0.571,1.209,0.994,1.687c0.423,0.477,0.92,0.846,1.492,1.106c0.571,0.262,1.188,0.393,1.852,0.393
				c0.662,0,1.279-0.131,1.852-0.393c0.571-0.261,1.068-0.63,1.491-1.106c0.422-0.478,0.754-1.045,0.994-1.704
				s0.359-1.385,0.359-2.181c0-0.772-0.119-1.488-0.359-2.146s-0.572-1.227-0.994-1.704c-0.423-0.477-0.92-0.846-1.491-1.107
				c-0.572-0.261-1.189-0.392-1.852-0.392c-0.663,0-1.28,0.137-1.852,0.409c-0.572,0.272-1.069,0.647-1.492,1.124
				c-0.423,0.477-0.754,1.045-0.994,1.704C154.225,57.053,154.105,57.769,154.105,58.541z"/>
			<linearGradient id="SVGID_6_" gradientUnits="userSpaceOnUse" x1="-17.0098" y1="10.9448" x2="216.3844" y2="121.6059">
				<stop  offset="0" style="stop-color:#FFFFFF"/>
				<stop  offset="0" style="stop-color:#E8E8E8"/>
				<stop  offset="1" style="stop-color:#5E5E5E"/>
			</linearGradient>
			<path fill="url(#SVGID_6_)" d="M181.98,53.532c-1.395,0.023-2.641,0.29-3.737,0.801c-1.099,0.511-1.887,1.278-2.366,2.3v10.8
				h-4.595V49.58h4.218v3.816c0.319-0.613,0.696-1.164,1.131-1.652s0.903-0.915,1.406-1.278c0.502-0.363,1.012-0.642,1.525-0.835
				c0.514-0.192,1.012-0.29,1.492-0.29c0.251,0,0.439,0,0.565,0c0.125,0,0.245,0.012,0.36,0.034V53.532z"/>
			<linearGradient id="SVGID_7_" gradientUnits="userSpaceOnUse" x1="-17.0098" y1="10.9448" x2="216.3844" y2="121.6059">
				<stop  offset="0" style="stop-color:#FFFFFF"/>
				<stop  offset="0" style="stop-color:#E8E8E8"/>
				<stop  offset="1" style="stop-color:#5E5E5E"/>
			</linearGradient>
			<path fill="url(#SVGID_7_)" d="M195.319,66.513c-0.617,0.272-1.372,0.545-2.264,0.817s-1.829,0.409-2.812,0.409
				c-0.64,0-1.24-0.08-1.801-0.238c-0.56-0.159-1.051-0.414-1.474-0.767c-0.424-0.353-0.761-0.807-1.012-1.363
				c-0.251-0.556-0.377-1.231-0.377-2.027V53.089h-2.365V49.58h2.365v-5.792h4.595v5.792h3.771v3.509h-3.771v8.722
				c0,0.637,0.166,1.085,0.497,1.347c0.331,0.261,0.737,0.392,1.218,0.392c0.479,0,0.948-0.079,1.405-0.238s0.823-0.295,1.098-0.409
				L195.319,66.513z"/>
			<linearGradient id="SVGID_8_" gradientUnits="userSpaceOnUse" x1="-17.0098" y1="10.9448" x2="216.3844" y2="121.6059">
				<stop  offset="0" style="stop-color:#FFFFFF"/>
				<stop  offset="0" style="stop-color:#E8E8E8"/>
				<stop  offset="1" style="stop-color:#5E5E5E"/>
			</linearGradient>
			<path fill="url(#SVGID_8_)" d="M205.604,67.773c-1.439,0-2.742-0.244-3.908-0.732c-1.165-0.488-2.16-1.152-2.982-1.993
				c-0.824-0.84-1.458-1.817-1.903-2.931c-0.445-1.112-0.669-2.282-0.669-3.509c0-1.272,0.218-2.47,0.651-3.595
				c0.434-1.124,1.063-2.112,1.887-2.964c0.822-0.852,1.821-1.528,3-2.027c1.177-0.5,2.497-0.75,3.96-0.75s2.771,0.25,3.926,0.75
				c1.154,0.5,2.138,1.17,2.949,2.01c0.811,0.84,1.428,1.817,1.852,2.93c0.423,1.113,0.634,2.271,0.634,3.475
				c0,0.295-0.006,0.579-0.017,0.852c-0.012,0.272-0.04,0.5-0.086,0.681h-13.887c0.068,0.705,0.239,1.329,0.515,1.874
				c0.274,0.546,0.628,1.012,1.063,1.397c0.435,0.387,0.926,0.682,1.474,0.886c0.55,0.204,1.121,0.307,1.715,0.307
				c0.914,0,1.777-0.222,2.589-0.664c0.811-0.443,1.366-1.028,1.663-1.755l3.943,1.09c-0.663,1.363-1.721,2.482-3.172,3.356
				C209.348,67.336,207.616,67.773,205.604,67.773z M210.268,57.007c-0.113-1.34-0.611-2.413-1.49-3.22
				c-0.881-0.806-1.949-1.209-3.206-1.209c-0.617,0-1.195,0.108-1.731,0.324c-0.538,0.216-1.013,0.517-1.423,0.903
				c-0.412,0.387-0.749,0.852-1.013,1.397c-0.263,0.545-0.417,1.147-0.463,1.806H210.268z"/>
		</g>
		<linearGradient id="SVGID_9_" gradientUnits="userSpaceOnUse" x1="-17.0098" y1="10.9448" x2="216.3844" y2="121.6059">
			<stop  offset="0" style="stop-color:#FFFFFF"/>
			<stop  offset="0" style="stop-color:#E8E8E8"/>
			<stop  offset="1" style="stop-color:#5E5E5E"/>
		</linearGradient>
		<path fill="url(#SVGID_9_)" d="M36.146,27.028c-2.451-1.328-5.056-2.502-7.732-3.606c1.645-2.799,4.1-7.751,6.944-9.565
			c2.647-1.689,6.568,2.646,6.311,5.018C41.363,21.68,37.646,25.106,36.146,27.028z"/>
		<linearGradient id="SVGID_10_" gradientUnits="userSpaceOnUse" x1="-17.0098" y1="10.9448" x2="216.3844" y2="121.6059">
			<stop  offset="0" style="stop-color:#FFFFFF"/>
			<stop  offset="0" style="stop-color:#E8E8E8"/>
			<stop  offset="1" style="stop-color:#5E5E5E"/>
		</linearGradient>
		<path fill="url(#SVGID_10_)" d="M43.246,35.338c-0.837-1.409-0.096-3.103-0.474-4.391c-0.601-2.058-3.698-1.994-4.892-3.45
			c1.401-3.102,3.502-5.511,5.522-7.997c3.381-0.712,6.222,2.509,6.628,4.547C51.095,29.376,44.515,31.843,43.246,35.338z"/>
		<linearGradient id="SVGID_11_" gradientUnits="userSpaceOnUse" x1="-17.0098" y1="10.9448" x2="216.3844" y2="121.6059">
			<stop  offset="0" style="stop-color:#FFFFFF"/>
			<stop  offset="0" style="stop-color:#E8E8E8"/>
			<stop  offset="1" style="stop-color:#5E5E5E"/>
		</linearGradient>
		<path fill="url(#SVGID_11_)" d="M26.203,24.206c5.7,1.864,10.626,4.495,15.938,6.742c2.15,8.506-10.631,8.042-12.781,3.136
			c-0.12,0.905,0.361,2.565,0.631,3.606c-0.729,0.581-1.729,0.894-2.841,1.098c3.9,2.902,7.936,5.072,11.047,8.781
			c3.414,4.072,4.645,9.621,7.732,14.269c-1.604-8.443-5.836-14.272-11.047-19.13c7.656,0.024,13.157,3.546,17.042,7.84
			c2.57-1.732,5.245-3.359,7.89-5.018c0.053,6.726-1.744,12.681-4.417,17.562c-0.934,1.703-2.69,3.377-2.999,5.018
			c-0.374,1.986,0.21,5.499,0.316,7.997c0.265,6.244,0.076,12.959,0.314,19.443c-4.368,1.623-7.135,4.578-9.783,7.996
			c-0.802,1.035-1.489,2.494-2.84,2.979c-0.311-3.389,0.301-6.857,0.631-10.348c0.981-10.363,2.558-20.93,3.314-31.517
			c-1.276,1.219-0.895,3.256-1.105,4.861c-1.543,11.759-2.964,24.513-4.734,36.063c-3.858-5.521-8.868-9.9-16.253-11.918
			c2.376-10.34,4.862-20.57,7.259-30.888C24.515,55.258,19.084,48.162,15,39.729C18.513,34.332,22.168,29.081,26.203,24.206z"/>
		<linearGradient id="SVGID_12_" gradientUnits="userSpaceOnUse" x1="-17.0098" y1="10.9448" x2="216.3844" y2="121.6059">
			<stop  offset="0" style="stop-color:#FFFFFF"/>
			<stop  offset="0" style="stop-color:#E8E8E8"/>
			<stop  offset="1" style="stop-color:#5E5E5E"/>
		</linearGradient>
		<path fill="url(#SVGID_12_)" d="M46.718,44.747c-2.475-0.677-4.858-1.444-6.312-3.136c3.181-5.568,7.428-10.076,11.203-15.053
			c3.212-0.667,6.011,3.5,5.838,5.645c-0.068,0.863-1.627,2.551-2.366,3.45C52.579,38.692,49.177,42.366,46.718,44.747z"/>
		<linearGradient id="SVGID_13_" gradientUnits="userSpaceOnUse" x1="-17.0098" y1="10.9448" x2="216.3844" y2="121.6059">
			<stop  offset="0" style="stop-color:#FFFFFF"/>
			<stop  offset="0" style="stop-color:#E8E8E8"/>
			<stop  offset="1" style="stop-color:#5E5E5E"/>
		</linearGradient>
		<path fill="url(#SVGID_13_)" d="M52.084,49.45c-1.484-1.139-2.608-2.636-3.788-4.077c3.432-4.064,7.143-7.851,10.729-11.76
			c2.257,1.068,5.077,3.242,4.735,5.958c-0.273,2.154-3.654,4.125-5.366,5.488C56.083,46.9,54.029,48.471,52.084,49.45z"/>
	</g>
</g>
</svg>
