<?xml version="1.0" encoding="utf-8"?>
<!-- Generator: Adobe Illustrator 15.1.0, SVG Export Plug-In . SVG Version: 6.00 Build 0)  -->
<!DOCTYPE svg PUBLIC "-//W3C//DTD SVG 1.1//EN" "http://www.w3.org/Graphics/SVG/1.1/DTD/svg11.dtd">
<svg version="1.1" id="Layer_1" xmlns="http://www.w3.org/2000/svg" xmlns:xlink="http://www.w3.org/1999/xlink" x="0px" y="0px"
	 width="300px" height="300px" viewBox="0 0 300 300" enable-background="new 0 0 300 300" xml:space="preserve">
<path fill="#FF9190" d="M252.061,190.309c0,47.261-29.521,85.566-65.925,85.566c-6.554,0-12.867-1.242-18.832-3.547
	c-10.784-4.178-22.604-4.178-33.403,0c-5.95,2.305-12.278,3.547-18.817,3.547c-36.405,0-65.926-38.306-65.926-85.566
	s29.521-85.567,65.926-85.567c7.362,0,14.431,1.579,21.038,4.471c4.653,2.025,9.599,3.045,14.529,3.045
	c2.739,0,5.477-0.321,8.172-0.964c2.125-0.489,4.222-1.188,6.259-2.082c6.608-2.892,13.69-4.471,21.055-4.471
	C222.54,104.741,252.061,143.048,252.061,190.309"/>
<path fill="#002440" d="M186.136,277.563c-6.614,0-13.154-1.231-19.44-3.661c-10.371-4.017-21.802-4.017-32.186,0
	c-6.271,2.429-12.809,3.661-19.427,3.661c-37.281,0-67.612-39.141-67.612-87.253c0-48.113,30.331-87.254,67.612-87.254
	c7.418,0,14.723,1.551,21.716,4.612c4.424,1.926,9.085,2.904,13.852,2.904c2.609,0,5.228-0.309,7.782-0.919
	c2.025-0.467,4.031-1.133,5.973-1.985c6.993-3.061,14.303-4.612,21.73-4.612c37.281,0,67.612,39.141,67.612,87.254
	C253.748,238.422,223.417,277.563,186.136,277.563 M150.608,267.514c5.865,0,11.725,1.081,17.305,3.241
	c5.896,2.277,12.024,3.434,18.223,3.434c35.42,0,64.237-37.628,64.237-83.879s-28.817-83.881-64.237-83.881
	c-6.96,0-13.813,1.458-20.376,4.33c-2.134,0.934-4.34,1.667-6.558,2.18c-2.797,0.667-5.679,1.006-8.552,1.006
	c-5.232,0-10.347-1.071-15.203-3.185c-6.565-2.873-13.415-4.331-20.364-4.331c-35.421,0-64.239,37.63-64.239,83.881
	s28.818,83.879,64.239,83.879c6.199,0,12.326-1.156,18.207-3.434C138.876,268.595,144.743,267.514,150.608,267.514"/>
<path fill="#002440" d="M63.132,191.996c-0.934,0-1.688-0.755-1.688-1.688c0-21.957,7.126-42.578,19.549-56.573
	c0.618-0.697,1.685-0.759,2.382-0.142c0.697,0.619,0.761,1.685,0.142,2.383c-11.885,13.385-18.698,33.188-18.698,54.332
	C64.818,191.241,64.063,191.996,63.132,191.996"/>
<path fill="#FFD963" d="M195.133,67.427c-20.846,5.378-35.023,23.498-36.31,43.866c-2.697,0.644-5.435,0.964-8.172,0.964
	c0.824-21.78,14.264-41.604,34.813-50.125c3.954-1.647,8.453,0.601,9.515,4.751C195.034,67.064,195.075,67.247,195.133,67.427"/>
<path fill="#002440" d="M150.651,113.944c-0.459,0-0.897-0.187-1.215-0.517c-0.318-0.33-0.489-0.775-0.472-1.232
	c0.858-22.682,14.933-42.945,35.853-51.621c2.333-0.972,4.971-0.881,7.236,0.248c2.27,1.132,3.931,3.188,4.559,5.643
	c0.011,0.029,0.043,0.141,0.073,0.252l0.059,0.212c0.135,0.44,0.086,0.918-0.139,1.321c-0.225,0.402-0.605,0.696-1.052,0.811
	c-19.684,5.08-33.769,22.096-35.045,42.34c-0.047,0.741-0.573,1.364-1.294,1.535C156.405,113.604,153.523,113.944,150.651,113.944
	 M188.166,63.279c-0.696,0-1.396,0.136-2.052,0.411c-19.157,7.943-32.217,26.194-33.679,46.832c1.608-0.086,3.215-0.29,4.801-0.607
	c1.813-20.543,15.948-37.777,35.725-43.637c-0.523-1.066-1.361-1.914-2.411-2.437C189.798,63.467,188.982,63.279,188.166,63.279"/>
<path fill="#86E075" d="M130.858,23.923c0,0,33.546,23.784,27.771,47.978c-3.82,15.991-25.337,19.644-33.163,5.188
	c-2.583-4.769-3.034-10.868,1.417-18.433C140.239,35.962,130.858,23.923,130.858,23.923"/>
<path fill="#002440" d="M140.554,87.842c-6.969,0-13.164-3.657-16.571-9.951c-3.3-6.094-2.812-12.854,1.448-20.091
	c12.534-21.296,4.438-32.386,4.09-32.848c-0.504-0.664-0.452-1.6,0.128-2.198c0.578-0.599,1.503-0.688,2.186-0.207
	c1.406,0.998,34.407,24.731,28.436,49.746c-1.968,8.234-8.656,14.267-17.043,15.373C142.325,87.783,141.435,87.842,140.554,87.842
	 M135.015,29.406c1.474,6.034,1.526,16.169-6.677,30.105c-3.617,6.147-4.085,11.793-1.389,16.774
	c3.154,5.827,9.226,8.911,15.837,8.035c6.987-0.921,12.563-5.95,14.201-12.81C161.068,54.409,143.959,37.09,135.015,29.406"/>
<path fill="#002440" d="M151.803,104.33c-0.431,0-0.857-0.163-1.188-0.488C137.01,90.403,133.261,73.444,139.154,52
	c0.248-0.9,1.18-1.43,2.073-1.18c0.899,0.247,1.428,1.175,1.181,2.073c-5.542,20.164-2.08,36.043,10.579,48.549
	c0.663,0.655,0.67,1.724,0.015,2.387C152.672,104.162,152.236,104.33,151.803,104.33"/>
</svg>
