<?xml version="1.0" encoding="utf-8"?>
<!-- Generator: Adobe Illustrator 15.1.0, SVG Export Plug-In . SVG Version: 6.00 Build 0)  -->
<!DOCTYPE svg PUBLIC "-//W3C//DTD SVG 1.1//EN" "http://www.w3.org/Graphics/SVG/1.1/DTD/svg11.dtd">
<svg version="1.1" id="Layer_1" xmlns="http://www.w3.org/2000/svg" xmlns:xlink="http://www.w3.org/1999/xlink" x="0px" y="0px"
	 width="500px" height="500px" viewBox="0 0 500 500" enable-background="new 0 0 500 500" xml:space="preserve">
<path fill="#DF7154" d="M291.666,333.334c-11.506-0.003-20.831-9.332-20.828-20.838c0.001-5.523,2.194-10.819,6.1-14.725
	l145.833-145.834c8.208-8.062,21.396-7.942,29.458,0.266c7.959,8.104,7.959,21.089,0,29.193L306.396,327.229
	C302.493,331.143,297.193,333.34,291.666,333.334z M62.5,354.166c-11.506-0.002-20.832-9.331-20.829-20.837
	c0.001-5.522,2.195-10.819,6.1-14.726l125-125c8.209-8.061,21.397-7.94,29.458,0.268c7.958,8.104,7.958,21.087,0,29.19l-125,125
	C73.327,351.977,68.027,354.173,62.5,354.166z"/>
<path fill="#DF7154" d="M291.666,333.334c-5.526,0.006-10.827-2.191-14.729-6.105L172.771,223.063
	c-8.061-8.208-7.94-21.397,0.268-29.458c8.104-7.957,21.088-7.957,29.19,0l104.167,104.167c8.135,8.137,8.133,21.328-0.005,29.462
	C302.486,331.139,297.19,333.332,291.666,333.334z"/>
</svg>
