<?xml version="1.0" encoding="utf-8"?>
<!-- Generator: Adobe Illustrator 15.1.0, SVG Export Plug-In . SVG Version: 6.00 Build 0)  -->
<!DOCTYPE svg PUBLIC "-//W3C//DTD SVG 1.1//EN" "http://www.w3.org/Graphics/SVG/1.1/DTD/svg11.dtd">
<svg version="1.1" id="Layer_1" xmlns="http://www.w3.org/2000/svg" xmlns:xlink="http://www.w3.org/1999/xlink" x="0px" y="0px"
	 width="500px" height="500px" viewBox="0 0 500 500" enable-background="new 0 0 500 500" xml:space="preserve">
<path fill="#DF7154" d="M250,244.792c-5.526,0.006-10.827-2.19-14.729-6.104l-62.5-62.5c-8.061-8.208-7.94-21.397,0.268-29.458
	c8.104-7.957,21.088-7.957,29.19,0L250,194.499l47.771-47.771c8.187-8.083,21.376-8,29.459,0.188
	c8.011,8.113,8.01,21.159-0.001,29.272l-62.5,62.5C260.827,242.601,255.527,244.798,250,244.792z M250,359.375
	c-5.526,0.006-10.827-2.19-14.729-6.104l-62.5-62.5c-8.061-8.209-7.941-21.398,0.267-29.459c8.104-7.958,21.088-7.958,29.191,0
	L250,309.082l47.771-47.771c8.187-8.082,21.376-7.998,29.459,0.188c8.011,8.113,8.01,21.16-0.001,29.273l-62.5,62.5
	C260.827,357.185,255.527,359.381,250,359.375z"/>
</svg>
