<?xml version="1.0" encoding="utf-8"?>
<!-- Generator: Adobe Illustrator 15.1.0, SVG Export Plug-In . SVG Version: 6.00 Build 0)  -->
<!DOCTYPE svg PUBLIC "-//W3C//DTD SVG 1.1//EN" "http://www.w3.org/Graphics/SVG/1.1/DTD/svg11.dtd">
<svg version="1.1" id="Layer_1" xmlns="http://www.w3.org/2000/svg" xmlns:xlink="http://www.w3.org/1999/xlink" x="0px" y="0px"
	 width="300px" height="300px" viewBox="0 0 300 300" enable-background="new 0 0 300 300" xml:space="preserve">
<path fill="#FFD06F" d="M215.693,86.967l-59.494-70.931c-2.927-3.489-8.295-3.489-11.222,0L85.483,86.967
	c-3.317,3.958-5.138,8.957-5.138,14.121v186.535h140.486V101.088C220.832,95.924,219.012,90.926,215.693,86.967 M150.588,79.515
	c-9.366,0-16.96-7.59-16.96-16.957c0-9.364,7.594-16.959,16.96-16.959c9.364,0,16.957,7.595,16.957,16.959
	C167.545,71.924,159.952,79.515,150.588,79.515"/>
<path fill="#002440" d="M220.831,289.396H80.346c-0.98,0-1.775-0.794-1.775-1.774V101.088c0-5.573,1.972-10.991,5.553-15.259
	l59.492-70.934c1.734-2.067,4.276-3.253,6.973-3.253c2.696,0,5.239,1.186,6.972,3.253l59.493,70.934
	c3.58,4.268,5.552,9.687,5.552,15.259v186.533C222.605,288.602,221.811,289.396,220.831,289.396 M82.121,285.846h136.937V101.088
	c0-4.738-1.678-9.349-4.725-12.98l0,0L154.84,17.176c-1.057-1.26-2.606-1.983-4.251-1.983c-1.646,0-3.195,0.724-4.252,1.983
	L86.845,88.108c-3.048,3.631-4.724,8.242-4.724,12.98V285.846z M150.588,81.291c-10.331,0-18.734-8.404-18.734-18.733
	c0-10.33,8.403-18.734,18.734-18.734c10.329,0,18.732,8.404,18.732,18.734C169.32,72.887,160.917,81.291,150.588,81.291
	 M150.588,47.374c-8.373,0-15.184,6.812-15.184,15.184c0,8.372,6.812,15.184,15.184,15.184c8.372,0,15.183-6.812,15.183-15.184
	C165.771,54.185,158.96,47.374,150.588,47.374"/>
<rect x="94.751" y="255.985" fill="#FFFFFF" width="111.675" height="17.579"/>
<path fill="#002440" d="M206.427,275.339H94.751c-0.98,0-1.776-0.794-1.776-1.773v-17.58c0-0.979,0.796-1.773,1.776-1.773h111.675
	c0.98,0,1.774,0.795,1.774,1.773v17.58C208.201,274.545,207.407,275.339,206.427,275.339 M96.526,271.791h108.127v-14.03H96.526
	V271.791z"/>
<rect x="94.751" y="227.724" fill="#FFFFFF" width="111.675" height="11.488"/>
<path fill="#002440" d="M206.427,240.985H94.751c-0.98,0-1.776-0.794-1.776-1.773v-11.489c0-0.979,0.796-1.775,1.776-1.775h111.675
	c0.98,0,1.774,0.796,1.774,1.775v11.489C208.201,240.191,207.407,240.985,206.427,240.985 M96.526,237.436h108.127v-7.938H96.526
	V237.436z"/>
<path fill="#9AE493" d="M207.007,105.286c0,0,7.304,59.433-24.402,76.944c-20.955,11.572-45.991-8.003-38.104-30.604
	c2.6-7.456,8.719-13.925,21.229-16.553C203.253,127.192,207.007,105.286,207.007,105.286"/>
<path fill="#002440" d="M169.489,187.416c-6.617,0-13.168-2.31-18.517-6.823c-8.796-7.423-11.918-18.745-8.149-29.552
	c3.24-9.286,10.824-15.242,22.541-17.704c35.927-7.545,39.859-28.143,39.896-28.351c0.148-0.868,0.917-1.446,1.792-1.474
	c0.879,0.022,1.611,0.685,1.719,1.559c0.304,2.476,7.077,60.829-25.307,78.713C179.051,186.22,174.253,187.416,169.489,187.416
	 M205.782,112.921c-4.356,7.478-14.859,18.675-39.69,23.89c-10.416,2.188-17.116,7.368-19.917,15.399
	c-3.273,9.382-0.557,19.218,7.088,25.671c8.061,6.804,19.242,7.899,28.483,2.795C205.482,167.569,206.491,129.189,205.782,112.921"
	/>
<path fill="#002440" d="M142.825,206.808c-0.025,0-0.048,0-0.075-0.001c-0.978-0.039-1.74-0.865-1.699-1.846
	c1.111-27.557,15.565-48.033,44.184-62.601c0.874-0.44,1.941-0.098,2.387,0.777c0.445,0.873,0.098,1.943-0.776,2.386
	c-27.372,13.934-41.193,33.424-42.25,59.582C144.558,206.059,143.771,206.808,142.825,206.808"/>
<path fill="#9AE493" d="M93.447,141.865c0,0-0.71,39.688,21.403,49.041c14.616,6.182,29.769-8.453,23.008-22.81
	c-2.229-4.736-6.71-8.577-15.138-9.445C97.436,156.048,93.447,141.865,93.447,141.865"/>
<path fill="#002440" d="M121.89,194.121c-2.593,0-5.216-0.518-7.731-1.58c-22.953-9.71-22.518-49.038-22.487-50.706
	c0.016-0.882,0.674-1.617,1.547-1.729c0.877-0.123,1.691,0.429,1.933,1.269c0.167,0.563,4.164,13.083,27.749,15.513
	c8.12,0.833,13.691,4.353,16.563,10.453c3.341,7.094,2.02,15.03-3.441,20.712C132.215,192.02,127.116,194.121,121.89,194.121
	 M95.51,148.667c0.914,11.471,4.671,34.106,20.033,40.605c6.214,2.63,13.248,1.187,17.921-3.677
	c4.417-4.598,5.486-11.013,2.788-16.742c-2.305-4.896-6.921-7.736-13.715-8.436C107.349,158.854,99.477,153.233,95.51,148.667
	 M93.447,141.865h0.011H93.447z"/>
<path fill="#002440" d="M142.652,204.966c-0.867,0-1.625-0.635-1.755-1.519c-2.469-16.94-12.803-28.68-31.592-35.89
	c-0.916-0.35-1.374-1.376-1.021-2.292c0.349-0.916,1.377-1.374,2.291-1.022c20.097,7.714,31.163,20.368,33.834,38.692
	c0.143,0.97-0.53,1.871-1.5,2.011C142.824,204.959,142.736,204.966,142.652,204.966"/>
</svg>
