<?xml version="1.0" encoding="utf-8"?>
<!-- Generator: Adobe Illustrator 15.1.0, SVG Export Plug-In . SVG Version: 6.00 Build 0)  -->
<!DOCTYPE svg PUBLIC "-//W3C//DTD SVG 1.1//EN" "http://www.w3.org/Graphics/SVG/1.1/DTD/svg11.dtd">
<svg version="1.1" id="Layer_1" xmlns="http://www.w3.org/2000/svg" xmlns:xlink="http://www.w3.org/1999/xlink" x="0px" y="0px"
	 width="300px" height="300px" viewBox="0 0 300 300" enable-background="new 0 0 300 300" xml:space="preserve">
<path fill="#FFFFFF" d="M229.886,89.597c0-45.117-37.644-81.443-83.235-79.285C106.015,12.236,73.102,45.19,71.22,85.826
	c-0.824,17.766,4.202,34.312,13.313,47.893c11.616,17.32,17.366,37.914,17.366,58.765v16.486h84.913
	c0-25.077,8.719-49.396,24.757-68.674C223.006,126.549,229.886,108.88,229.886,89.597"/>
<path fill="#002440" d="M186.812,210.814h-84.913c-1.02,0-1.846-0.826-1.846-1.846v-16.483c0-21.141-5.898-41.104-17.055-57.738
	c-9.726-14.501-14.437-31.448-13.623-49.007c1.917-41.373,35.82-75.313,77.188-77.272c22.46-1.08,43.773,6.872,59.996,22.344
	c16.233,15.483,25.172,36.36,25.172,58.783c0,18.927-6.655,37.352-18.744,51.88c-15.688,18.858-24.327,42.829-24.327,67.494
	C188.659,209.988,187.832,210.814,186.812,210.814 M103.744,207.123h81.238c0.42-24.875,9.319-48.96,25.167-68.008
	c11.536-13.868,17.891-31.452,17.891-49.52c0-21.404-8.535-41.333-24.03-56.111c-15.484-14.77-35.834-22.335-57.273-21.328
	c-39.483,1.868-71.844,34.265-73.674,73.755c-0.776,16.764,3.72,32.939,13.003,46.78c11.565,17.243,17.679,37.918,17.679,59.794
	V207.123z"/>
<path fill="#5ED9FB" d="M193.582,222.917H96.77c-3.85,0-6.973-3.123-6.973-6.975s3.123-6.974,6.973-6.974h96.812
	c3.85,0,6.974,3.122,6.974,6.974S197.432,222.917,193.582,222.917"/>
<path fill="#002440" d="M193.582,224.763H96.771c-4.864,0-8.82-3.957-8.82-8.818c0-4.865,3.957-8.821,8.82-8.821h96.811
	c4.863,0,8.818,3.956,8.818,8.821C202.4,220.806,198.445,224.763,193.582,224.763 M96.771,210.814c-2.829,0-5.129,2.301-5.129,5.13
	c0,2.826,2.3,5.126,5.129,5.126h96.811c2.826,0,5.126-2.3,5.126-5.126c0-2.829-2.3-5.13-5.126-5.13H96.771z"/>
<path fill="#5ED9FB" d="M193.582,251.633H96.77c-3.85,0-6.973-3.122-6.973-6.975c0-3.85,3.123-6.974,6.973-6.974h96.812
	c3.85,0,6.974,3.124,6.974,6.974C200.556,248.511,197.432,251.633,193.582,251.633"/>
<path fill="#002440" d="M193.582,253.478H96.771c-4.864,0-8.82-3.956-8.82-8.819s3.957-8.818,8.82-8.818h96.811
	c4.863,0,8.818,3.955,8.818,8.818S198.445,253.478,193.582,253.478 M96.771,239.53c-2.829,0-5.129,2.301-5.129,5.128
	c0,2.826,2.3,5.128,5.129,5.128h96.811c2.826,0,5.126-2.302,5.126-5.128c0-2.827-2.3-5.128-5.126-5.128H96.771z"/>
<rect x="103.462" y="222.917" fill="#5ED9FB" width="83.428" height="14.768"/>
<path fill="#002440" d="M186.89,239.53h-83.427c-1.021,0-1.846-0.826-1.846-1.846v-14.768c0-1.019,0.825-1.847,1.846-1.847h83.427
	c1.02,0,1.845,0.828,1.845,1.847v14.768C188.734,238.704,187.909,239.53,186.89,239.53 M105.309,235.838h79.736v-11.075h-79.736
	V235.838z"/>
<rect x="103.461" y="251.638" fill="#5ED9FB" width="83.425" height="14.767"/>
<path fill="#002440" d="M186.886,268.252h-83.425c-1.021,0-1.846-0.828-1.846-1.848v-14.767c0-1.019,0.825-1.848,1.846-1.848h83.425
	c1.021,0,1.846,0.829,1.846,1.848v14.767C188.731,267.424,187.906,268.252,186.886,268.252 M105.306,264.557h79.735v-11.074h-79.735
	V264.557z"/>
<path fill="#5ED9FB" d="M175.786,266.404c-3.311,13.821-15.764,24.096-30.607,24.096c-14.84,0-27.295-10.274-30.617-24.096H175.786z
	"/>
<path fill="#002440" d="M145.18,292.345c-15.472,0-28.801-10.487-32.415-25.509c-0.13-0.549-0.004-1.129,0.345-1.574
	c0.353-0.443,0.885-0.702,1.45-0.702h61.226c0.566,0,1.098,0.258,1.45,0.702c0.351,0.443,0.478,1.022,0.345,1.572
	C173.983,281.854,160.658,292.345,145.18,292.345 M117,268.25c3.946,12.126,15.217,20.405,28.18,20.405
	c12.969,0,24.234-8.279,28.17-20.405H117z"/>
<path fill="#86E075" d="M162.261,35.703c0,0,36.511,60.723,10.672,94.916c-17.077,22.6-53.563,13.495-55.924-14.73
	c-0.779-9.311,2.721-19.25,14.976-28.113C168.748,61.189,162.261,35.703,162.261,35.703"/>
<path fill="#002440" d="M147.55,145.195c-3.161,0-6.362-0.444-9.525-1.36c-12.979-3.759-21.735-14.408-22.855-27.794
	c-0.962-11.502,4.332-21.513,15.732-29.759c35.34-25.556,29.631-49.88,29.57-50.124c-0.227-0.886,0.232-1.806,1.077-2.159
	c0.845-0.352,1.82-0.034,2.294,0.753c1.517,2.523,36.85,62.193,10.562,96.979C167.866,140.384,157.942,145.195,147.55,145.195
	 M164.447,43.65c-0.856,9.99-6.409,27.562-31.381,45.623c-10.281,7.436-15.066,16.337-14.219,26.46
	c0.99,11.823,8.73,21.232,20.202,24.556c12.095,3.5,24.813-0.73,32.41-10.783C191.185,103.404,172.91,60.417,164.447,43.65"/>
<path fill="#002440" d="M151.929,185.334c-0.62,0-1.224-0.313-1.572-0.875c-17.089-27.686-16.453-57.254,1.937-90.392
	c0.496-0.894,1.619-1.214,2.513-0.719c0.891,0.496,1.21,1.619,0.717,2.51c-17.685,31.866-18.347,60.214-2.025,86.659
	c0.536,0.867,0.265,2.006-0.602,2.541C152.595,185.245,152.259,185.334,151.929,185.334"/>
</svg>
